# xmcd CD database file
#
# Track frame offsets:
#	150
#	15800
#	38625
#	62450
#	87205
#	108150
#	131057
#	153667
#	170200
#	193250
#	217950
#	261167
#
# Disc length: 4440 seconds
#
# Revision: 0
# Processed by: cddbd v1.5PL3 Copyright (c) Steve Scherf et al.
# Submitted via: CDex 1.50beta10
#
DISCID=9c11560c
DTITLE=SMOOTH ACE - LOVE STORY〜AVEC PIANO〜
DYEAR=2002
DGENRE=JPop
TTITLE0=LOVE LOVE LOVE
TTITLE1=Missing
TTITLE2=One more time, One more chance
TTITLE3=Everything
TTITLE4=クリスマス・イブ
TTITLE5=チェリー
TTITLE6=PIECE OF MY WISH
TTITLE7=そして僕は，途方に暮れる
TTITLE8=雪が降る町
TTITLE9=幸せであるように
TTITLE10=CHRISTMAS TREE
TTITLE11=DATA TRACK
EXTD=YEAR: 2002
EXTT0=
EXTT1=
EXTT2=
EXTT3=
EXTT4=
EXTT5=
EXTT6=
EXTT7=
EXTT8=
EXTT9=
EXTT10=
EXTT11=
PLAYORDER=
